{"title":"Ex.On.The.Beach.S01E08.Finale.PDTV.x264-LEE.mp4","uid":10334586,"size":461601155,"categoryP":"video","categoryS":"tv_shows","magnet":"?xt=urn:btih:054855adda65e9c6951531c812e6b9d40777807b&amp;dn=Ex.On.The.Beach.S01E08.Finale.PDTV.x264-LEE.mp4&amp;tr=udp%3A%2F%2Ftracker.openbittorrent.com%3A80&amp;tr=udp%3A%2F%2Fopen.demonii.com%3A1337&amp;tr=udp%3A%2F%2Ftracker.coppersurfer.tk%3A6969&amp;tr=udp%3A%2F%2Fexodus.desync.com%3A6969","seeders":9,"leechers":0,"uploader":"W33DandSHANE","files":1,"time":1402453130,"description":"Complete name : Ex.On.The.Beach.S01E08.Finale.PDTV.x264-LEE.mp4\nFormat : MPEG-4\nFormat profile : Base Media / Version 2\nCodec ID : mp42\nFile size : 440 MiB\nDuration : 43mn 17s\nOverall bit rate mode : Variable\nOverall bit rate : 1 422 Kbps\n\n\nVideo\nID : 1\nFormat : AVC\nFormat/Info : Advanced Video Codec\nFormat profile : &lt;a class=&quot;__cf_email__&quot; href=&quot;/cdn-cgi/l/email-protection&quot; data-cfemail=&quot;713c10181f313d455f40&quot;&gt;[email&amp;#160;protected]&lt;/a&gt;&lt;script cf-hash='f9e31' type=&quot;text/javascript&quot;&gt;\n/* &lt;![CDATA[ */!function(){try{var t=&quot;currentScript&quot;in document?document.currentScript:function(){for(var t=document.getElementsByTagName(&quot;script&quot;),e=t.length;e--;)if(t[e].getAttribute(&quot;cf-hash&quot;))return t[e]}();if(t&amp;&amp;t.previousSibling){var e,r,n,i,c=t.previousSibling,a=c.getAttribute(&quot;data-cfemail&quot;);if(a){for(e=&quot;&quot;,r=parseInt(a.substr(0,2),16),n=2;a.length-n;n+=2)i=parseInt(a.substr(n,2),16)^r,e+=String.fromCharCode(i);e=document.createTextNode(e),c.parentNode.replaceChild(e,c)}}}catch(u){}}();/* ]]&gt; */&lt;/script&gt;\nFormat settings, CABAC : Yes\nFormat settings, ReFrames : 4 frames\nCodec ID : avc1\nCodec ID/Info : Advanced Video Coding\nDuration : 43mn 17s\nBit rate : 1 290 Kbps\nWidth : 704 pixels\nHeight : 400 pixels\nDisplay aspect ratio : 16:9\nFrame rate mode : Constant\nFrame rate : 25.000 fps\nColor space : YUV\nChroma subsampling : 4:2:0\nBit depth : 8 bits\nScan type : Progressive\nBits/(Pixel*Frame) : 0.183\nStream size : 399 MiB (91%)\nWriting library : x264 core 130 r2273 b3065e6\n\n\nAudio\nID : 2\nFormat : AAC\nFormat/Info : Advanced Audio Codec\nFormat profile : LC\nCodec ID : 40\nDuration : 43mn 17s\nBit rate mode : Variable\nBit rate : 128 Kbps\nMaximum bit rate : 137 Kbps\nChannel(s) : 2 channels\nChannel positions : Front: L R\nSampling rate : 48.0 KHz\nCompression mode : Lossy\nStream size : 39.5 MiB (9%)\nLanguage : English\nEncoded date : UTC 2014-06-10 23:32:27\nTagged date : UTC 2014-06-11 00:11:54","torrent":{"xt":"urn:btih:054855adda65e9c6951531c812e6b9d40777807b","amp;dn":"Ex.On.The.Beach.S01E08.Finale.PDTV.x264-LEE.mp4","amp;tr":["udp%3A%2F%2Ftracker.openbittorrent.com%3A80","udp%3A%2F%2Fopen.demonii.com%3A1337","udp%3A%2F%2Ftracker.coppersurfer.tk%3A6969","udp%3A%2F%2Fexodus.desync.com%3A6969"],"infoHash":"054855adda65e9c6951531c812e6b9d40777807b","infoHashBuffer":{"type":"Buffer","data":[5,72,85,173,218,101,233,198,149,21,49,200,18,230,185,212,7,119,128,123]},"announce":[],"urlList":[]}}